<?xml version="1.0" encoding="UTF-8"?>
<svg xmlns="http://www.w3.org/2000/svg" xmlns:xlink="http://www.w3.org/1999/xlink" width="4000" height="1600" viewBox="0 0 4000 1600">
<path fill-rule="nonzero" fill="rgb(100%, 80.076599%, 66.601562%)" fill-opacity="1" d="M 1009.558594 847.621094 C 996.84375 847.808594 984.476562 850.566406 972.785156 855.492188 C 944.015625 867.621094 919.976562 897.4375 914.800781 927.734375 C 880.828125 926.777344 857.144531 954.496094 845.015625 983.265625 C 832.886719 1012.035156 828.351562 1046.90625 829.21875 1089.980469 C 830.085938 1133.050781 854.375 1229.828125 854.375 1229.828125 L 860.714844 1600 L 1271.929688 1600 L 1277.398438 1220.027344 L 1303.140625 1108.84375 C 1310.640625 1076.417969 1312.710938 1008.628906 1298.820312 980.667969 C 1284.53125 951.898438 1268.699219 932.949219 1229.648438 930.296875 C 1230.898438 900.347656 1188.988281 870.6875 1160.21875 858.558594 C 1131.449219 846.429688 1091.210938 843.136719 1066.5 864.582031 C 1047.46875 852.578125 1028.140625 847.347656 1009.558594 847.621094 "/>
<path fill-rule="nonzero" fill="rgb(82.8125%, 55.271912%, 37.255859%)" fill-opacity="1" d="M 1172.160156 971.765625 C 1163.859375 1002.738281 1137.269531 1022.523438 1112.769531 1015.957031 C 1101.011719 1012.804688 1091.308594 1003.871094 1085.808594 991.128906 C 1080.300781 978.378906 1079.449219 962.863281 1083.441406 947.988281 C 1087.421875 933.117188 1095.921875 920.105469 1107.058594 911.816406 C 1118.191406 903.527344 1131.058594 900.644531 1142.828125 903.796875 C 1167.328125 910.359375 1180.460938 940.789062 1172.160156 971.765625 "/>
<path fill-rule="nonzero" fill="rgb(82.8125%, 55.271912%, 37.255859%)" fill-opacity="1" d="M 1250.019531 1073.527344 C 1233.980469 1101.296875 1203.179688 1113.527344 1181.210938 1100.84375 C 1159.25 1088.160156 1154.429688 1055.371094 1170.46875 1027.601562 C 1178.171875 1014.265625 1189.738281 1003.894531 1202.640625 998.773438 C 1215.550781 993.648438 1228.71875 994.191406 1239.269531 1000.28125 C 1249.820312 1006.371094 1256.878906 1017.511719 1258.890625 1031.246094 C 1260.910156 1044.984375 1257.71875 1060.191406 1250.019531 1073.527344 "/>
<path fill-rule="nonzero" fill="rgb(82.8125%, 55.271912%, 37.255859%)" fill-opacity="1" d="M 954.519531 1027.601562 C 970.550781 1055.371094 965.742188 1088.160156 943.773438 1100.84375 C 921.808594 1113.527344 891.003906 1101.296875 874.96875 1073.527344 C 858.9375 1045.757812 863.746094 1012.964844 885.714844 1000.28125 C 907.683594 987.601562 938.488281 999.832031 954.519531 1027.601562 "/>
<path fill-rule="nonzero" fill="rgb(82.8125%, 55.271912%, 37.255859%)" fill-opacity="1" d="M 1042.511719 947.988281 C 1050.808594 978.964844 1037.671875 1009.394531 1013.171875 1015.957031 C 988.667969 1022.523438 962.078125 1002.738281 953.78125 971.765625 C 945.480469 940.789062 958.617188 910.359375 983.117188 903.796875 C 1007.621094 897.230469 1034.210938 917.015625 1042.511719 947.988281 "/>
<path fill-rule="nonzero" fill="rgb(82.8125%, 55.271912%, 37.255859%)" fill-opacity="1" d="M 1065.308594 1044.800781 C 1030.308594 1044.800781 1001.929688 1072.039062 1001.929688 1105.640625 C 1001.960938 1109.921875 1002.460938 1114.1875 1003.410156 1118.371094 C 967.25 1124.066406 941.210938 1148.996094 941.175781 1177.960938 C 941.175781 1194.097656 949.335938 1209.570312 963.867188 1220.980469 C 978.394531 1232.390625 998.101562 1238.800781 1018.648438 1238.800781 C 1036.03125 1238.796875 1052.910156 1234.203125 1066.558594 1225.757812 C 1080.179688 1234.183594 1097.011719 1238.777344 1114.359375 1238.800781 C 1134.898438 1238.800781 1154.609375 1232.390625 1169.140625 1220.980469 C 1183.671875 1209.570312 1191.828125 1194.097656 1191.828125 1177.960938 C 1191.789062 1148.320312 1164.550781 1123.019531 1127.339844 1118.050781 C 1128.238281 1113.96875 1128.691406 1109.8125 1128.691406 1105.640625 C 1128.691406 1072.039062 1100.320312 1044.800781 1065.308594 1044.800781 "/>
<path fill-rule="nonzero" fill="rgb(100%, 70.117188%, 50.193787%)" fill-opacity="1" d="M 1182.191406 1350.816406 C 1124.011719 1350.816406 1068.210938 1359.980469 1027.070312 1376.300781 C 985.933594 1392.617188 962.820312 1414.75 962.820312 1437.824219 C 962.824219 1485.878906 1061.039062 1524.835938 1182.191406 1524.835938 C 1213.589844 1524.800781 1244.601562 1522.089844 1273.128906 1516.890625 L 1275.398438 1359.175781 C 1246.261719 1353.707031 1214.429688 1350.851562 1182.191406 1350.816406 "/>
<path fill-rule="nonzero" fill="rgb(100%, 59.959412%, 33.325195%)" fill-opacity="1" d="M 394.179688 781.742188 C 381.464844 781.929688 369.097656 784.691406 357.410156 789.617188 C 328.640625 801.746094 304.601562 831.558594 299.425781 861.855469 C 265.453125 860.902344 241.765625 888.617188 229.636719 917.390625 C 217.511719 946.160156 213.84375 983.632812 215.144531 1024.96875 C 216.445312 1066.308594 238.996094 1163.953125 238.996094 1163.953125 L 246.464844 1600 L 655.609375 1600 L 662.027344 1154.148438 L 687.761719 1042.96875 C 695.269531 1010.539062 697.339844 942.753906 683.445312 914.789062 C 669.148438 886.019531 653.324219 867.074219 614.277344 864.421875 C 615.519531 834.46875 573.609375 804.808594 544.839844 792.679688 C 516.070312 780.554688 475.832031 777.257812 451.125 798.703125 C 432.089844 786.699219 412.765625 781.472656 394.179688 781.742188 "/>
<path fill-rule="nonzero" fill="rgb(100%, 83.59375%, 83.59375%)" fill-opacity="1" d="M 556.785156 905.886719 C 552.800781 920.761719 544.304688 933.773438 533.167969 942.0625 C 522.03125 950.347656 509.164062 953.234375 497.398438 950.082031 C 485.632812 946.929688 475.929688 937.996094 470.429688 925.25 C 464.929688 912.503906 464.074219 896.988281 468.0625 882.113281 C 476.359375 851.140625 502.949219 831.355469 527.449219 837.917969 C 551.953125 844.484375 565.085938 874.914062 556.785156 905.886719 "/>
<path fill-rule="nonzero" fill="rgb(100%, 83.59375%, 83.59375%)" fill-opacity="1" d="M 634.640625 1007.652344 C 626.941406 1020.984375 615.367188 1031.355469 602.464844 1036.480469 C 589.5625 1041.601562 576.386719 1041.058594 565.835938 1034.96875 C 543.871094 1022.285156 539.058594 989.492188 555.09375 961.722656 C 571.125 933.953125 601.929688 921.722656 623.894531 934.40625 C 634.445312 940.496094 641.503906 951.636719 643.519531 965.371094 C 645.53125 979.105469 642.339844 994.316406 634.640625 1007.652344 "/>
<path fill-rule="nonzero" fill="rgb(100%, 83.59375%, 83.59375%)" fill-opacity="1" d="M 339.144531 961.722656 C 355.175781 989.492188 350.367188 1022.285156 328.398438 1034.96875 C 306.433594 1047.652344 275.628906 1035.421875 259.59375 1007.652344 C 243.5625 979.882812 248.371094 947.089844 270.339844 934.40625 C 292.304688 921.722656 323.109375 933.953125 339.144531 961.722656 "/>
<path fill-rule="nonzero" fill="rgb(100%, 83.59375%, 83.59375%)" fill-opacity="1" d="M 427.128906 882.113281 C 435.429688 913.085938 422.296875 943.515625 397.796875 950.082031 C 373.292969 956.644531 346.703125 936.859375 338.40625 905.886719 C 330.105469 874.914062 343.238281 844.484375 367.742188 837.917969 C 392.242188 831.355469 418.832031 851.140625 427.128906 882.113281 "/>
<path fill-rule="nonzero" fill="rgb(100%, 83.59375%, 83.59375%)" fill-opacity="1" d="M 449.9375 978.925781 C 414.933594 978.925781 386.558594 1006.164062 386.558594 1039.765625 C 386.585938 1044.046875 387.082031 1048.3125 388.039062 1052.492188 C 351.871094 1058.1875 325.835938 1083.117188 325.800781 1112.085938 C 325.800781 1128.222656 333.960938 1143.695312 348.488281 1155.105469 C 363.019531 1166.515625 382.722656 1172.925781 403.269531 1172.925781 C 420.652344 1172.921875 437.53125 1168.324219 451.183594 1159.878906 C 464.808594 1168.304688 481.636719 1172.898438 498.980469 1172.925781 C 519.527344 1172.925781 539.234375 1166.515625 553.761719 1155.105469 C 568.289062 1143.695312 576.453125 1128.222656 576.453125 1112.085938 C 576.410156 1082.445312 549.175781 1057.140625 511.96875 1052.171875 C 512.859375 1048.09375 513.3125 1043.933594 513.316406 1039.765625 C 513.316406 1006.164062 484.941406 978.925781 449.9375 978.925781 "/>
<path fill-rule="nonzero" fill="rgb(100%, 49.804688%, 16.479492%)" fill-opacity="1" d="M 278.707031 1290.285156 C 265.980469 1290.304688 253.335938 1291.089844 241.203125 1292.613281 L 242.847656 1388.679688 C 254.484375 1390.0625 266.5625 1390.769531 278.707031 1390.777344 C 312.183594 1390.777344 344.289062 1385.484375 367.960938 1376.0625 C 391.632812 1366.636719 404.933594 1353.859375 404.933594 1340.53125 C 404.933594 1312.78125 348.417969 1290.285156 278.707031 1290.285156 "/>
<path fill-rule="nonzero" fill="rgb(100%, 49.804688%, 16.479492%)" fill-opacity="1" d="M 619.394531 1474.109375 C 585.917969 1474.109375 553.8125 1479.40625 530.140625 1488.828125 C 506.464844 1498.25 493.167969 1511.03125 493.167969 1524.355469 C 493.167969 1552.105469 549.683594 1574.601562 619.394531 1574.601562 C 631.804688 1574.585938 644.140625 1573.84375 656.007812 1572.394531 L 657.386719 1476.457031 C 645.097656 1474.90625 632.285156 1474.117188 619.394531 1474.109375 "/>
<path fill-rule="nonzero" fill="rgb(50.193787%, 50.193787%, 50.193787%)" fill-opacity="1" d="M 1681.878906 733.859375 C 1649.820312 713.640625 1616.929688 712.644531 1588.160156 724.773438 C 1559.390625 736.902344 1535.351562 766.714844 1530.179688 797.011719 C 1496.199219 796.058594 1472.519531 823.777344 1460.390625 852.546875 C 1448.261719 881.316406 1440.949219 907.558594 1441.558594 956.066406 C 1442.179688 1004.570312 1469.75 1099.109375 1469.75 1099.109375 L 1478.328125 1600 L 1885.429688 1600 L 1892.78125 1089.304688 L 1918.511719 978.125 C 1926.019531 945.699219 1928.089844 877.90625 1914.199219 849.945312 C 1899.898438 821.175781 1884.078125 802.230469 1845.03125 799.574219 C 1846.269531 769.625 1804.359375 739.964844 1775.589844 727.835938 C 1746.820312 715.710938 1706.578125 712.414062 1681.878906 733.859375 "/>
<path fill-rule="nonzero" fill="rgb(100%, 83.59375%, 83.59375%)" fill-opacity="1" d="M 1787.539062 841.042969 C 1783.550781 855.917969 1775.058594 868.929688 1763.921875 877.21875 C 1752.78125 885.503906 1739.910156 888.390625 1728.148438 885.238281 C 1703.648438 878.671875 1690.511719 848.242188 1698.808594 817.269531 C 1702.800781 802.394531 1711.289062 789.382812 1722.429688 781.097656 C 1733.570312 772.808594 1746.441406 769.921875 1758.199219 773.074219 C 1769.96875 776.226562 1779.671875 785.160156 1785.171875 797.90625 C 1790.671875 810.652344 1791.519531 826.171875 1787.539062 841.042969 "/>
<path fill-rule="nonzero" fill="rgb(100%, 83.59375%, 83.59375%)" fill-opacity="1" d="M 1865.390625 942.808594 C 1857.691406 956.144531 1846.121094 966.511719 1833.21875 971.636719 C 1820.308594 976.757812 1807.140625 976.214844 1796.589844 970.125 C 1786.039062 964.035156 1778.980469 952.894531 1776.96875 939.160156 C 1774.949219 925.421875 1778.140625 910.214844 1785.839844 896.878906 C 1793.539062 883.542969 1805.121094 873.175781 1818.019531 868.050781 C 1830.921875 862.929688 1844.101562 863.472656 1854.648438 869.5625 C 1865.199219 875.652344 1872.25 886.789062 1874.269531 900.527344 C 1876.28125 914.261719 1873.089844 929.472656 1865.390625 942.808594 "/>
<path fill-rule="nonzero" fill="rgb(100%, 83.59375%, 83.59375%)" fill-opacity="1" d="M 1569.898438 896.878906 C 1585.929688 924.648438 1581.121094 957.441406 1559.148438 970.125 C 1537.179688 982.808594 1506.378906 970.578125 1490.351562 942.808594 C 1474.308594 915.039062 1479.121094 882.246094 1501.089844 869.5625 C 1523.058594 856.878906 1553.859375 869.109375 1569.898438 896.878906 "/>
<path fill-rule="nonzero" fill="rgb(100%, 83.59375%, 83.59375%)" fill-opacity="1" d="M 1657.878906 817.269531 C 1661.871094 832.144531 1661.019531 847.660156 1655.511719 860.40625 C 1650.011719 873.152344 1640.308594 882.085938 1628.550781 885.238281 C 1616.78125 888.390625 1603.910156 885.503906 1592.78125 877.21875 C 1581.640625 868.929688 1573.140625 855.917969 1569.160156 841.042969 C 1560.859375 810.070312 1573.988281 779.640625 1598.488281 773.074219 C 1622.988281 766.511719 1649.578125 786.296875 1657.878906 817.269531 "/>
<path fill-rule="nonzero" fill="rgb(100%, 83.59375%, 83.59375%)" fill-opacity="1" d="M 1680.691406 914.082031 C 1645.691406 914.082031 1617.308594 941.320312 1617.308594 974.921875 C 1617.339844 979.203125 1617.828125 983.46875 1618.789062 987.648438 C 1582.628906 993.34375 1556.589844 1018.273438 1556.550781 1047.242188 C 1556.550781 1063.378906 1564.710938 1078.851562 1579.238281 1090.261719 C 1593.769531 1101.671875 1613.480469 1108.082031 1634.019531 1108.082031 C 1651.410156 1108.078125 1668.28125 1103.480469 1681.941406 1095.035156 C 1695.558594 1103.460938 1712.390625 1108.054688 1729.730469 1108.082031 C 1750.28125 1108.082031 1769.980469 1101.671875 1784.511719 1090.261719 C 1799.039062 1078.851562 1807.199219 1063.378906 1807.199219 1047.242188 C 1807.160156 1017.601562 1779.929688 992.296875 1742.71875 987.328125 C 1743.609375 983.246094 1744.058594 979.089844 1744.070312 974.921875 C 1744.070312 941.320312 1715.691406 914.082031 1680.691406 914.082031 "/>
<path fill-rule="nonzero" fill="rgb(39.988708%, 39.988708%, 39.988708%)" fill-opacity="1" d="M 1815.960938 1425.472656 C 1733.320312 1425.472656 1666.328125 1434.855469 1666.328125 1446.433594 C 1666.328125 1458.007812 1733.320312 1467.390625 1815.960938 1467.390625 C 1840.921875 1467.382812 1865.46875 1466.496094 1887.371094 1464.820312 L 1887.898438 1428.074219 C 1865.871094 1426.375 1841.121094 1425.480469 1815.960938 1425.472656 "/>
<path fill-rule="nonzero" fill="rgb(39.988708%, 39.988708%, 39.988708%)" fill-opacity="1" d="M 1477.140625 1530.917969 L 1477.828125 1570.980469 C 1540.75 1568.292969 1583.78125 1560.167969 1583.851562 1550.953125 C 1583.71875 1541.710938 1540.371094 1533.570312 1477.140625 1530.917969 "/>
<path fill-rule="nonzero" fill="rgb(39.988708%, 39.988708%, 39.988708%)" fill-opacity="1" d="M 1523.519531 1215.246094 C 1505.621094 1215.261719 1487.949219 1216.566406 1471.800781 1219.066406 L 1473.011719 1289.597656 C 1488.828125 1291.980469 1506.070312 1293.222656 1523.519531 1293.238281 C 1555.460938 1293.238281 1586.101562 1289.128906 1608.691406 1281.816406 C 1631.28125 1274.503906 1643.96875 1264.585938 1643.96875 1254.242188 C 1643.96875 1232.707031 1590.039062 1215.246094 1523.519531 1215.246094 "/>
<path fill-rule="nonzero" fill="rgb(78.514099%, 71.679688%, 71.679688%)" fill-opacity="1" d="M 2927.199219 733.859375 C 2895.140625 713.640625 2862.261719 712.644531 2833.488281 724.773438 C 2804.71875 736.902344 2780.679688 766.714844 2775.5 797.011719 C 2741.53125 796.058594 2717.839844 823.777344 2705.71875 852.546875 C 2693.589844 881.316406 2689.050781 916.1875 2689.921875 959.257812 C 2690.789062 1002.332031 2715.070312 1099.109375 2715.070312 1099.109375 L 2723.648438 1600 L 3130.75 1600 L 3138.101562 1089.304688 L 3163.839844 978.125 C 3171.351562 945.699219 3173.410156 877.90625 3159.519531 849.945312 C 3145.230469 821.175781 3129.398438 802.230469 3090.351562 799.574219 C 3091.601562 769.625 3049.691406 739.964844 3020.921875 727.835938 C 2992.148438 715.710938 2951.910156 712.414062 2927.199219 733.859375 "/>
<path fill-rule="nonzero" fill="rgb(100%, 83.59375%, 83.59375%)" fill-opacity="1" d="M 3032.859375 841.042969 C 3024.558594 872.015625 2997.96875 891.800781 2973.46875 885.238281 C 2961.710938 882.085938 2952.011719 873.152344 2946.511719 860.40625 C 2941 847.660156 2940.148438 832.144531 2944.140625 817.269531 C 2948.121094 802.394531 2956.621094 789.382812 2967.761719 781.097656 C 2978.890625 772.808594 2991.761719 769.921875 3003.53125 773.074219 C 3028.03125 779.640625 3041.160156 810.070312 3032.859375 841.042969 "/>
<path fill-rule="nonzero" fill="rgb(100%, 83.59375%, 83.59375%)" fill-opacity="1" d="M 3110.71875 942.808594 C 3094.679688 970.578125 3063.878906 982.808594 3041.910156 970.125 C 3019.949219 957.441406 3015.140625 924.648438 3031.171875 896.878906 C 3038.871094 883.542969 3050.441406 873.175781 3063.339844 868.050781 C 3076.25 862.929688 3089.421875 863.472656 3099.96875 869.5625 C 3110.519531 875.652344 3117.578125 886.789062 3119.589844 900.527344 C 3121.609375 914.261719 3118.421875 929.472656 3110.71875 942.808594 "/>
<path fill-rule="nonzero" fill="rgb(100%, 83.59375%, 83.59375%)" fill-opacity="1" d="M 2815.21875 896.878906 C 2831.25 924.648438 2826.441406 957.441406 2804.480469 970.125 C 2782.511719 982.808594 2751.699219 970.578125 2735.671875 942.808594 C 2719.640625 915.039062 2724.449219 882.246094 2746.421875 869.5625 C 2768.378906 856.878906 2799.191406 869.109375 2815.21875 896.878906 "/>
<path fill-rule="nonzero" fill="rgb(100%, 83.59375%, 83.59375%)" fill-opacity="1" d="M 2903.210938 817.269531 C 2911.511719 848.242188 2898.371094 878.671875 2873.871094 885.238281 C 2849.371094 891.800781 2822.78125 872.015625 2814.480469 841.042969 C 2806.179688 810.070312 2819.320312 779.640625 2843.820312 773.074219 C 2868.320312 766.511719 2894.910156 786.296875 2903.210938 817.269531 "/>
<path fill-rule="nonzero" fill="rgb(100%, 83.59375%, 83.59375%)" fill-opacity="1" d="M 2926.011719 914.082031 C 2891.011719 914.082031 2862.640625 941.320312 2862.640625 974.921875 C 2862.660156 979.203125 2863.160156 983.46875 2864.121094 987.648438 C 2827.949219 993.34375 2801.910156 1018.273438 2801.878906 1047.242188 C 2801.878906 1063.378906 2810.039062 1078.851562 2824.570312 1090.261719 C 2839.101562 1101.671875 2858.800781 1108.082031 2879.351562 1108.082031 C 2896.730469 1108.078125 2913.609375 1103.480469 2927.261719 1095.035156 C 2940.890625 1103.460938 2957.710938 1108.054688 2975.058594 1108.082031 C 2995.601562 1108.082031 3015.308594 1101.671875 3029.839844 1090.261719 C 3044.371094 1078.851562 3052.53125 1063.378906 3052.53125 1047.242188 C 3052.488281 1017.601562 3025.25 992.296875 2988.039062 987.328125 C 2988.941406 983.246094 2989.390625 979.089844 2989.390625 974.921875 C 2989.390625 941.320312 2961.019531 914.082031 2926.011719 914.082031 "/>
<path fill-rule="nonzero" fill="rgb(67.381287%, 57.617188%, 57.617188%)" fill-opacity="1" d="M 3042.890625 1220.09375 C 2984.710938 1220.09375 2928.910156 1229.261719 2887.769531 1245.578125 C 2846.628906 1261.898438 2823.519531 1284.027344 2823.519531 1307.105469 C 2823.519531 1355.160156 2921.738281 1394.117188 3042.890625 1394.117188 C 3074.289062 1394.078125 3105.300781 1391.367188 3133.828125 1386.167969 L 3136.101562 1228.453125 C 3106.960938 1222.984375 3075.128906 1220.128906 3042.890625 1220.09375 "/>
<path fill-rule="nonzero" fill="rgb(67.381287%, 57.617188%, 57.617188%)" fill-opacity="1" d="M 2770.828125 1492.15625 C 2752.71875 1492.167969 2735.28125 1495.40625 2721.960938 1501.222656 L 2722.828125 1552.089844 C 2736.050781 1557.675781 2753.128906 1560.769531 2770.828125 1560.785156 C 2810.761719 1560.785156 2843.128906 1545.421875 2843.128906 1526.46875 C 2843.128906 1517.371094 2835.511719 1508.640625 2821.949219 1502.207031 C 2808.390625 1495.769531 2790 1492.15625 2770.828125 1492.15625 "/>
<path fill-rule="nonzero" fill="rgb(87.109375%, 66.601562%, 52.929688%)" fill-opacity="1" d="M 2254.878906 793.320312 C 2242.171875 793.503906 2229.800781 796.265625 2218.109375 801.195312 C 2189.339844 813.320312 2165.300781 843.132812 2160.128906 873.429688 C 2126.148438 872.476562 2102.46875 900.195312 2090.339844 928.964844 C 2078.210938 957.734375 2074.539062 995.207031 2075.839844 1036.546875 C 2077.140625 1077.882812 2099.699219 1175.527344 2099.699219 1175.527344 L 2106.96875 1600 L 2516.480469 1600 L 2522.730469 1165.726562 L 2548.46875 1054.542969 C 2555.96875 1022.117188 2558.039062 954.328125 2544.148438 926.367188 C 2529.851562 897.59375 2514.03125 878.648438 2474.980469 875.996094 C 2476.21875 846.046875 2434.308594 816.382812 2405.539062 804.257812 C 2376.769531 792.128906 2336.53125 788.835938 2311.828125 810.28125 C 2292.789062 798.273438 2273.46875 793.046875 2254.878906 793.320312 "/>
<path fill-rule="nonzero" fill="rgb(100%, 83.59375%, 83.59375%)" fill-opacity="1" d="M 2417.488281 917.460938 C 2413.5 932.335938 2405.011719 945.347656 2393.871094 953.636719 C 2382.730469 961.925781 2369.859375 964.808594 2358.101562 961.65625 C 2346.328125 958.503906 2336.628906 949.570312 2331.128906 936.824219 C 2325.628906 924.078125 2324.78125 908.5625 2328.761719 893.6875 C 2337.058594 862.714844 2363.648438 842.929688 2388.148438 849.496094 C 2412.648438 856.058594 2425.789062 886.488281 2417.488281 917.460938 "/>
<path fill-rule="nonzero" fill="rgb(100%, 83.59375%, 83.59375%)" fill-opacity="1" d="M 2495.339844 1019.226562 C 2487.640625 1032.5625 2476.070312 1042.933594 2463.160156 1048.054688 C 2450.261719 1053.175781 2437.089844 1052.632812 2426.539062 1046.542969 C 2404.570312 1033.859375 2399.761719 1001.066406 2415.789062 973.300781 C 2431.828125 945.527344 2462.628906 933.300781 2484.601562 945.980469 C 2495.148438 952.070312 2502.199219 963.210938 2504.21875 976.945312 C 2506.230469 990.683594 2503.039062 1005.890625 2495.339844 1019.226562 "/>
<path fill-rule="nonzero" fill="rgb(100%, 83.59375%, 83.59375%)" fill-opacity="1" d="M 2199.839844 973.300781 C 2215.878906 1001.066406 2211.070312 1033.859375 2189.101562 1046.542969 C 2167.128906 1059.226562 2136.328125 1046.996094 2120.300781 1019.226562 C 2104.261719 991.457031 2109.070312 958.664062 2131.039062 945.980469 C 2153.011719 933.300781 2183.808594 945.527344 2199.839844 973.300781 "/>
<path fill-rule="nonzero" fill="rgb(100%, 83.59375%, 83.59375%)" fill-opacity="1" d="M 2287.828125 893.6875 C 2296.128906 924.660156 2283 955.09375 2258.5 961.65625 C 2233.988281 968.222656 2207.398438 948.433594 2199.109375 917.460938 C 2190.808594 886.488281 2203.941406 856.058594 2228.441406 849.496094 C 2252.941406 842.929688 2279.53125 862.714844 2287.828125 893.6875 "/>
<path fill-rule="nonzero" fill="rgb(100%, 83.59375%, 83.59375%)" fill-opacity="1" d="M 2310.640625 990.5 C 2275.640625 990.5 2247.261719 1017.738281 2247.261719 1051.339844 C 2247.289062 1055.621094 2247.78125 1059.886719 2248.738281 1064.066406 C 2212.570312 1069.765625 2186.539062 1094.691406 2186.5 1123.660156 C 2186.5 1139.796875 2194.660156 1155.269531 2209.191406 1166.679688 C 2223.71875 1178.089844 2243.429688 1184.5 2263.96875 1184.5 C 2281.351562 1184.496094 2298.230469 1179.902344 2311.890625 1171.453125 C 2325.511719 1179.882812 2342.339844 1184.476562 2359.679688 1184.5 C 2380.230469 1184.5 2399.929688 1178.089844 2414.460938 1166.679688 C 2428.988281 1155.269531 2437.148438 1139.796875 2437.148438 1123.660156 C 2437.109375 1094.019531 2409.878906 1068.714844 2372.671875 1063.746094 C 2373.558594 1059.667969 2374.011719 1055.511719 2374.019531 1051.339844 C 2374.019531 1017.738281 2345.640625 990.5 2310.640625 990.5 "/>
<path fill-rule="nonzero" fill="rgb(82.8125%, 55.271912%, 37.255859%)" fill-opacity="1" d="M 2139.410156 1301.863281 C 2126.679688 1301.878906 2114.039062 1302.664062 2101.898438 1304.1875 L 2103.550781 1400.253906 C 2115.191406 1401.636719 2127.261719 1402.34375 2139.410156 1402.351562 C 2172.878906 1402.351562 2204.988281 1397.058594 2228.660156 1387.636719 C 2252.328125 1378.214844 2265.628906 1365.433594 2265.628906 1352.105469 C 2265.628906 1324.355469 2209.121094 1301.863281 2139.410156 1301.863281 "/>
<path fill-rule="nonzero" fill="rgb(82.8125%, 55.271912%, 37.255859%)" fill-opacity="1" d="M 2480.101562 1485.6875 C 2446.621094 1485.6875 2414.511719 1490.980469 2390.839844 1500.402344 C 2367.171875 1509.828125 2353.871094 1522.605469 2353.871094 1535.933594 C 2353.871094 1563.683594 2410.378906 1586.179688 2480.101562 1586.179688 C 2492.511719 1586.164062 2504.839844 1585.417969 2516.710938 1583.96875 L 2518.089844 1488.03125 C 2505.800781 1486.480469 2492.988281 1485.691406 2480.101562 1485.6875 "/>
<path fill-rule="nonzero" fill="rgb(80.076599%, 80.076599%, 80.076599%)" fill-opacity="1" d="M 3485.628906 794.09375 C 3472.921875 794.28125 3460.550781 797.039062 3448.859375 801.96875 C 3420.089844 814.097656 3396.050781 843.910156 3390.878906 874.207031 C 3356.898438 873.253906 3333.21875 900.96875 3321.089844 929.742188 C 3308.960938 958.511719 3301.648438 984.753906 3302.261719 1033.257812 C 3302.878906 1081.765625 3330.449219 1176.304688 3330.449219 1176.304688 L 3337.710938 1600 L 3747.238281 1600 L 3753.480469 1166.5 L 3779.21875 1055.320312 C 3786.71875 1022.894531 3788.789062 955.101562 3774.898438 927.140625 C 3760.601562 898.371094 3744.78125 879.425781 3705.730469 876.769531 C 3706.96875 846.820312 3665.058594 817.160156 3636.289062 805.03125 C 3607.519531 792.902344 3567.28125 789.609375 3542.578125 811.054688 C 3523.539062 799.050781 3504.21875 793.820312 3485.628906 794.09375 "/>
<path fill-rule="nonzero" fill="rgb(100%, 66.601562%, 66.601562%)" fill-opacity="1" d="M 3648.238281 918.238281 C 3644.25 933.113281 3635.761719 946.125 3624.621094 954.410156 C 3613.480469 962.699219 3600.621094 965.585938 3588.851562 962.433594 C 3564.351562 955.867188 3551.210938 925.4375 3559.511719 894.464844 C 3563.5 879.589844 3572 866.578125 3583.128906 858.289062 C 3594.269531 850.003906 3607.140625 847.117188 3618.898438 850.269531 C 3630.671875 853.421875 3640.371094 862.355469 3645.871094 875.101562 C 3651.371094 887.847656 3652.21875 903.363281 3648.238281 918.238281 "/>
<path fill-rule="nonzero" fill="rgb(100%, 66.601562%, 66.601562%)" fill-opacity="1" d="M 3726.089844 1020.003906 C 3718.390625 1033.335938 3706.820312 1043.707031 3693.921875 1048.828125 C 3681.011719 1053.953125 3667.839844 1053.410156 3657.289062 1047.320312 C 3646.738281 1041.230469 3639.679688 1030.089844 3637.671875 1016.355469 C 3635.648438 1002.617188 3638.839844 987.410156 3646.539062 974.074219 C 3654.238281 960.738281 3665.820312 950.371094 3678.71875 945.246094 C 3691.621094 940.121094 3704.800781 940.667969 3715.351562 946.757812 C 3725.898438 952.847656 3732.960938 963.984375 3734.96875 977.722656 C 3736.988281 991.457031 3733.789062 1006.667969 3726.089844 1020.003906 "/>
<path fill-rule="nonzero" fill="rgb(100%, 66.601562%, 66.601562%)" fill-opacity="1" d="M 3430.601562 974.074219 C 3446.628906 1001.84375 3441.820312 1034.636719 3419.851562 1047.320312 C 3397.878906 1060.003906 3367.078125 1047.773438 3351.050781 1020.003906 C 3335.011719 992.234375 3339.820312 959.441406 3361.789062 946.757812 C 3383.761719 934.074219 3414.558594 946.304688 3430.601562 974.074219 "/>
<path fill-rule="nonzero" fill="rgb(100%, 66.601562%, 66.601562%)" fill-opacity="1" d="M 3518.578125 894.464844 C 3522.570312 909.339844 3521.71875 924.855469 3516.210938 937.601562 C 3510.710938 950.347656 3501.011719 959.28125 3489.25 962.433594 C 3477.480469 965.585938 3464.609375 962.699219 3453.480469 954.410156 C 3442.339844 946.125 3433.839844 933.113281 3429.859375 918.238281 C 3421.558594 887.265625 3434.691406 856.835938 3459.191406 850.269531 C 3483.691406 843.703125 3510.28125 863.492188 3518.578125 894.464844 "/>
<path fill-rule="nonzero" fill="rgb(100%, 66.601562%, 66.601562%)" fill-opacity="1" d="M 3541.390625 991.277344 C 3506.390625 991.277344 3478.011719 1018.515625 3478.011719 1052.117188 C 3478.039062 1056.398438 3478.53125 1060.664062 3479.488281 1064.84375 C 3443.328125 1070.539062 3417.289062 1095.46875 3417.25 1124.4375 C 3417.25 1140.570312 3425.410156 1156.046875 3439.941406 1167.457031 C 3454.46875 1178.867188 3474.179688 1185.277344 3494.71875 1185.277344 C 3512.109375 1185.273438 3528.980469 1180.675781 3542.640625 1172.230469 C 3556.261719 1180.65625 3573.089844 1185.25 3590.429688 1185.277344 C 3610.980469 1185.277344 3630.679688 1178.867188 3645.210938 1167.457031 C 3659.738281 1156.046875 3667.898438 1140.570312 3667.910156 1124.4375 C 3667.859375 1094.796875 3640.628906 1069.492188 3603.421875 1064.523438 C 3604.308594 1060.441406 3604.761719 1056.285156 3604.769531 1052.117188 C 3604.769531 1018.515625 3576.390625 991.277344 3541.390625 991.277344 "/>
<path fill-rule="nonzero" fill="rgb(70.117188%, 70.117188%, 70.117188%)" fill-opacity="1" d="M 3676.660156 1502.667969 C 3594.019531 1502.667969 3527.03125 1512.050781 3527.03125 1523.628906 C 3527.03125 1535.203125 3594.019531 1544.585938 3676.660156 1544.585938 C 3701.621094 1544.578125 3726.171875 1543.691406 3748.070312 1542.015625 L 3748.601562 1505.269531 C 3726.570312 1503.570312 3701.820312 1502.675781 3676.660156 1502.667969 "/>
<path fill-rule="nonzero" fill="rgb(70.117188%, 70.117188%, 70.117188%)" fill-opacity="1" d="M 3384.21875 1292.441406 C 3366.320312 1292.453125 3348.648438 1293.761719 3332.5 1296.261719 L 3333.710938 1366.789062 C 3349.53125 1369.175781 3366.769531 1370.417969 3384.21875 1370.433594 C 3416.171875 1370.433594 3446.800781 1366.324219 3469.390625 1359.011719 C 3491.980469 1351.699219 3504.671875 1341.777344 3504.671875 1331.4375 C 3504.671875 1309.902344 3450.738281 1292.441406 3384.21875 1292.441406 "/>
</svg>
